<?xml version="1.0" encoding="UTF-8" standalone="no"?>
<!-- Generator: Adobe Illustrator 17.0.0, SVG Export Plug-In . SVG Version: 6.00 Build 0)  -->

<svg
   xmlns:dc="http://purl.org/dc/elements/1.1/"
   xmlns:cc="http://creativecommons.org/ns#"
   xmlns:rdf="http://www.w3.org/1999/02/22-rdf-syntax-ns#"
   xmlns:svg="http://www.w3.org/2000/svg"
   xmlns="http://www.w3.org/2000/svg"
   xmlns:sodipodi="http://sodipodi.sourceforge.net/DTD/sodipodi-0.dtd"
   xmlns:inkscape="http://www.inkscape.org/namespaces/inkscape"
   version="1.1"
   id="Capa_1"
   x="0px"
   y="0px"
   width="64px"
   height="64px"
   viewBox="0 0 64 64"
   style="enable-background:new 0 0 64 64;"
   xml:space="preserve"
   inkscape:version="0.48.4 r9939"
   sodipodi:docname="avatar.svg"
   inkscape:export-filename="/home/jose/Dropbox/Proyectos/Drogas Calidad/Codigo/hadro-nube2014/public/assets/img/avatar.png"
   inkscape:export-xdpi="90"
   inkscape:export-ydpi="90"><metadata
     id="metadata17"><rdf:RDF><cc:Work
         rdf:about=""><dc:format>image/svg+xml</dc:format><dc:type
           rdf:resource="http://purl.org/dc/dcmitype/StillImage" /><dc:title></dc:title></cc:Work></rdf:RDF></metadata><defs
     id="defs15" /><sodipodi:namedview
     pagecolor="#ffffff"
     bordercolor="#666666"
     borderopacity="1"
     objecttolerance="10"
     gridtolerance="10"
     guidetolerance="10"
     inkscape:pageopacity="0"
     inkscape:pageshadow="2"
     inkscape:window-width="1366"
     inkscape:window-height="721"
     id="namedview13"
     showgrid="false"
     inkscape:zoom="3.6875"
     inkscape:cx="39.728814"
     inkscape:cy="6.9152478"
     inkscape:window-x="-2"
     inkscape:window-y="-3"
     inkscape:window-maximized="1"
     inkscape:current-layer="g3" /><g
     id="g3"><rect
       style="fill:#e6e6e6"
       id="rect3008"
       width="40"
       height="40"
       x="10.847458"
       y="12.067795" /><path
       inkscape:connector-curvature="0"
       d="m 34.565669,38.578371 c -0.769638,-0.126985 -0.787184,-2.321437 -0.787184,-2.321437 0,0 2.261298,-2.321518 2.754157,-5.443268 1.325773,0 2.1447,-3.318828 0.818707,-4.486509 0.05538,-1.229197 1.704191,-9.649174 -6.643126,-9.649174 -8.347317,0 -6.698471,8.419977 -6.643271,9.649174 -1.325907,1.167681 -0.507124,4.486509 0.818715,4.486509 0.492784,3.12175 2.754157,5.443268 2.754157,5.443268 0,0 -0.0175,2.194452 -0.787115,2.321437 C 24.371807,38.987412 15.115,43.221469 15.115,47.864424 h 15.593223 15.593222 c 0,-4.642955 -9.256799,-8.877012 -11.735776,-9.286053 z"
       id="path3"
       style="fill:#2c3e50;fill-opacity:1" /></g></svg>